<svg width="145" height="114" viewBox="0 0 145 114" fill="none" xmlns="http://www.w3.org/2000/svg">
<path d="M122 57C122 88.4802 94.6894 114 61 114C27.3106 114 0 88.4802 0 57C0 25.5198 27.3106 0 61 0C94.6894 0 122 25.5198 122 57Z" fill="#091F16"/>
<g style="mix-blend-mode:luminosity" filter="url(#filter0_d_4_11)">
<path d="M38.0455 44L31.6818 20.7273H34.5455L39.4091 39.6818H39.6364L44.5909 20.7273H47.7727L52.7273 39.6818H52.9545L57.8182 20.7273H60.6818L54.3182 44H51.4091L46.2727 25.4545H46.0909L40.9545 44H38.0455ZM63.8295 44V26.5455H66.5114V44H63.8295ZM65.1932 23.6364C64.6705 23.6364 64.2197 23.4583 63.8409 23.1023C63.4697 22.7462 63.2841 22.3182 63.2841 21.8182C63.2841 21.3182 63.4697 20.8902 63.8409 20.5341C64.2197 20.178 64.6705 20 65.1932 20C65.7159 20 66.1629 20.178 66.5341 20.5341C66.9129 20.8902 67.1023 21.3182 67.1023 21.8182C67.1023 22.3182 66.9129 22.7462 66.5341 23.1023C66.1629 23.4583 65.7159 23.6364 65.1932 23.6364ZM74.1051 20.7273V44H71.4233V20.7273H74.1051ZM81.6989 20.7273V44H79.017V20.7273H81.6989ZM41 83H33.8182V59.7273H41.3182C43.5758 59.7273 45.5076 60.1932 47.1136 61.125C48.7197 62.0492 49.9508 63.3788 50.8068 65.1136C51.6629 66.8409 52.0909 68.9091 52.0909 71.3182C52.0909 73.7424 51.6591 75.8295 50.7955 77.5795C49.9318 79.322 48.6742 80.6629 47.0227 81.6023C45.3712 82.5341 43.3636 83 41 83ZM36.6364 80.5H40.8182C42.7424 80.5 44.3371 80.1288 45.6023 79.3864C46.8674 78.6439 47.8106 77.5871 48.4318 76.2159C49.053 74.8447 49.3636 73.2121 49.3636 71.3182C49.3636 69.4394 49.0568 67.822 48.4432 66.4659C47.8295 65.1023 46.9129 64.0568 45.6932 63.3295C44.4735 62.5947 42.9545 62.2273 41.1364 62.2273H36.6364V80.5ZM63.7727 83.3636C62.0909 83.3636 60.6402 82.9924 59.4205 82.25C58.2083 81.5 57.2727 80.4545 56.6136 79.1136C55.9621 77.7652 55.6364 76.197 55.6364 74.4091C55.6364 72.6212 55.9621 71.0455 56.6136 69.6818C57.2727 68.3106 58.1894 67.2424 59.3636 66.4773C60.5455 65.7045 61.9242 65.3182 63.5 65.3182C64.4091 65.3182 65.3068 65.4697 66.1932 65.7727C67.0795 66.0758 67.8864 66.5682 68.6136 67.25C69.3409 67.9242 69.9205 68.8182 70.3523 69.9318C70.7841 71.0455 71 72.4167 71 74.0455V75.1818H57.5455V72.8636H68.2727C68.2727 71.8788 68.0758 71 67.6818 70.2273C67.2955 69.4545 66.7424 68.8447 66.0227 68.3977C65.3106 67.9508 64.4697 67.7273 63.5 67.7273C62.4318 67.7273 61.5076 67.9924 60.7273 68.5227C59.9545 69.0455 59.3598 69.7273 58.9432 70.5682C58.5265 71.4091 58.3182 72.3106 58.3182 73.2727V74.8182C58.3182 76.1364 58.5455 77.2538 59 78.1705C59.4621 79.0795 60.1023 79.7727 60.9205 80.25C61.7386 80.7197 62.6894 80.9545 63.7727 80.9545C64.4773 80.9545 65.1136 80.8561 65.6818 80.6591C66.2576 80.4545 66.7538 80.1515 67.1705 79.75C67.5871 79.3409 67.9091 78.8333 68.1364 78.2273L70.7273 78.9545C70.4545 79.8333 69.9962 80.6061 69.3523 81.2727C68.7083 81.9318 67.9129 82.447 66.9659 82.8182C66.0189 83.1818 64.9545 83.3636 63.7727 83.3636ZM88.821 65.5455L82.3665 83H79.6392L73.1847 65.5455H76.0938L80.9119 79.4545H81.0938L85.9119 65.5455H88.821Z" fill="#1439BA"/>
</g>
<defs>
<filter id="filter0_d_4_11" x="27.6818" y="20" width="65.1392" height="71.3636" filterUnits="userSpaceOnUse" color-interpolation-filters="sRGB">
<feFlood flood-opacity="0" result="BackgroundImageFix"/>
<feColorMatrix in="SourceAlpha" type="matrix" values="0 0 0 0 0 0 0 0 0 0 0 0 0 0 0 0 0 0 127 0" result="hardAlpha"/>
<feOffset dy="4"/>
<feGaussianBlur stdDeviation="2"/>
<feComposite in2="hardAlpha" operator="out"/>
<feColorMatrix type="matrix" values="0 0 0 0 0 0 0 0 0 0 0 0 0 0 0 0 0 0 0.25 0"/>
<feBlend mode="normal" in2="BackgroundImageFix" result="effect1_dropShadow_4_11"/>
<feBlend mode="normal" in="SourceGraphic" in2="effect1_dropShadow_4_11" result="shape"/>
</filter>
</defs>
</svg>
